# xmcd CD database file
#
# Track frame offsets:
#	150
#	25100
#	46732
#	68662
#	84335
#	106965
#	125112
#	145410
#	166080
#	188657
#	212265
#	233462
#	256140
#
# Disc length: 3712 seconds
#
# Revision: 12
# Processed by: cddbd v1.5.2PL0 Copyright (c) Steve Scherf et al.
# Submitted via: CDex 1.83
#
DISCID=9c0e7e0d
DTITLE=Boyz II Men - Evolution
DYEAR=1997
DGENRE=R&B
TTITLE0=Doin' Just Fine
TTITLE1=Never
TTITLE2=4 Seasons Of Loneliness
TTITLE3=Girl In The Life Magazine
TTITLE4=A Song For Mama
TTITLE5=Can You Stand The Rain
TTITLE6=Can't Let Her Go
TTITLE7=Baby C'mon
TTITLE8=Come On
TTITLE9=All Night Long
TTITLE10=Human II [Don't Turn Your Back On Me]
TTITLE11=To The Limit
TTITLE12=Dear God
EXTD=YEAR: 1997
EXTT0=
EXTT1=
EXTT2=
EXTT3=
EXTT4=
EXTT5=
EXTT6=
EXTT7=
EXTT8=
EXTT9=
EXTT10=
EXTT11=
EXTT12=
PLAYORDER=
